<svg id="Final_Layer" data-name="Final Layer" xmlns="http://www.w3.org/2000/svg" viewBox="0 0 1078.54 902.16"><defs><style>.cls-1{fill:#ffe500;}.cls-2{stroke:#000;stroke-miterlimit:10;}.cls-3{fill:#fff;}</style></defs><title>bb-logo</title><path d="M940.18,647.36c52.37-54.65,93.91-94.91,137.82-116.23,0,0-49.77,21.46-161.37,10.14Z" transform="translate(-1 -90.27)"/><path d="M941.24,648.42c23.09-24.08,46.37-48.11,71.49-70.1,20.21-17.68,41.83-34.05,66-45.89,1.76-.87.21-3.34-1.52-2.6-5.93,2.55-15.92,4.94-23.28,6.47-24.1,5-48.88,6.67-73.45,6.76a619.71,619.71,0,0,1-63.88-3.29c-1-.11-1.63,1-1.44,1.9l20.64,93,2.91,13.09c.41,1.88,3.31,1.09,2.89-.8L921,554l-2.91-13.09-1.45,1.9c34.51,3.45,69.42,4.68,104,1.42,17-1.61,34.25-4.13,50.66-9.15a75.91,75.91,0,0,0,7.47-2.61l-1.52-2.6c-24,11.73-45.4,27.9-65.45,45.34-25.58,22.26-49.22,46.68-72.67,71.13C937.79,647.69,939.9,649.82,941.24,648.42Z" transform="translate(-1 -90.27)"/><path class="cls-1" d="M272.16,501.52s76.11-88.92,193.88-124a328.53,328.53,0,0,1,91.82-14c168.52-1.18,246.22,49.83,281.68,77.12s102,77.54,100.79,219.66c-.72,86.84-54.59,203.69-155.47,259.35-55.94,30.87-118.09,58.46-198,65-49,4-104.7.1-169.74-15.84A252.88,252.88,0,0,1,290,893.37C223.37,820,145,680.45,272.16,501.52Z" transform="translate(-1 -90.27)"/><path d="M275.69,505.06c8.58-10,18.29-19.15,28-28A469.3,469.3,0,0,1,381.64,420c37.23-21.75,77.72-38.05,120.17-46.07,46.44-8.77,95.32-6.5,142.07-1.06,57.84,6.72,115.9,22.2,165.78,53,31.88,19.71,62.92,44.62,84.34,75.74,17.66,25.65,28.82,55,35,85.41,7.4,36.73,9.18,75.91,2.62,112.9-12.68,71.58-51.45,139.88-107.26,186.58C794,911.91,757.25,930.11,721,945.6c-41.49,17.75-85.47,29.56-130.45,33.65-43.68,4-87.79,1.1-130.91-6.6-23.31-4.16-46.81-9-69.06-17.27a249.67,249.67,0,0,1-57-30.08c-26.93-19-49.37-43.82-68.41-70.58-16.85-23.69-31-49.46-40.7-76.9a259.31,259.31,0,0,1-15-96.68c1.54-40.09,12.81-79.32,30.17-115.35a431,431,0,0,1,36.84-61.74c3.72-5.27-5-10.27-8.64-5.05-26.9,38-48.91,80.06-60.21,125.44a271.84,271.84,0,0,0-4.78,109.68c9.78,59.6,40.32,113.87,80,158.72a261.31,261.31,0,0,0,103.61,71.61c22.71,8.56,46.73,13.6,70.57,17.84a555.39,555.39,0,0,0,70,8.14c45,2.24,90.39-2,134-13.51,41.49-11,80.85-28.41,118.54-48.75,35.33-19.07,66.32-44,91.74-75.15a340.84,340.84,0,0,0,55.81-98.42C939,722,945.6,687.77,945.33,653.07c-.3-39.08-5.72-78.83-20.6-115.18a217.49,217.49,0,0,0-44.14-68.37c-13-13.61-27.87-25.36-43-36.63-39.94-29.84-86.58-49-135-60.1-41.3-9.49-83.78-13.57-126.09-14.26-25.41-.41-50.58.8-75.62,5.4a356.1,356.1,0,0,0-67,19.42c-59.15,23.49-114,60.87-158.08,106.81-2.46,2.56-4.91,5.14-7.22,7.83C264.46,502.85,271.5,510,275.69,505.06Z" transform="translate(-1 -90.27)"/><path class="cls-2" d="M441.93,974.31s163.72-71,139.32-320.65c0,0-17.29-216.14-258.16-199.7l-64.49,67.7,124.17,436Z" transform="translate(-1 -90.27)"/><path class="cls-2" d="M753,936.32s107.93-73.63,80.48-288.75c0,0-26.86-277.63-233.06-283.27C483.25,361.1,447,387.8,447,387.8c242,2,267.44,265.86,267.44,265.86,30.51,211.06-106.1,328.6-106.1,328.6S702,966.32,753,936.32Z" transform="translate(-1 -90.27)"/><path class="cls-2" d="M818.18,425.34s179,153.23,72.2,391.69c0,0,67.43-122.43,44.51-225.49S818.18,425.34,818.18,425.34Z" transform="translate(-1 -90.27)"/><path class="cls-3" d="M507.66,614.64S1058.25,366.76,975.18,221.1C911,108.65,750,132.41,578.88,328.07c-50.54,57.79-102,130.58-152,219.3Z" transform="translate(-1 -90.27)"/><path d="M510.18,619c12.25-5.52,24.39-11.32,36.49-17.15q45.87-22.09,90.86-45.94c39.71-21,78.91-43.06,117.27-66.48,39.93-24.38,79-50.26,116-78.95,31.64-24.54,62.47-51.29,86.94-83.2,17.2-22.43,33.25-50.52,30.7-79.86-1.4-16-8.6-29.82-17.91-42.73-12.74-17.68-29.23-32.59-48.89-42.2-44.36-21.68-96.1-14.74-140.62,2.72C713.46,191.69,655.45,240,605.5,291.7,548.59,350.58,500,417.32,456.85,486.81q-17.76,28.65-34.32,58c-1,1.79-.91,4.65.79,6.06L494,609.73l10.14,8.45c4.91,4.09,12-2.95,7.07-7.08l-70.66-58.83-10.14-8.44.78,6.06C471.65,478.25,517.06,409,570.09,346c49.51-58.85,106.4-114.63,174.07-152.28,43.72-24.32,96.83-43.2,147.26-31.44a117.77,117.77,0,0,1,53.63,28.34c12.89,12,25.77,28.29,30.92,44.62,7.92,25.12-2.76,51.36-17.08,73.28-20.33,31.12-48.6,57-77.09,80.47-34.87,28.74-72.31,54.32-110.49,78.42s-77.1,46.52-116.67,68q-48,26-97,50c-16.66,8.18-33.39,16.22-50.27,23.92l-2.27,1C499.27,613,504.35,621.58,510.18,619Z" transform="translate(-1 -90.27)"/><path d="M907,208.33c-6.25,3-12.31,6.42-18.33,9.84-18,10.23-35.47,21.32-52.65,32.84-28.28,19-55.69,39.19-82.49,60.19-37.29,29.22-73.32,60-108.31,92-45.35,41.4-89,84.7-131.08,129.38q-8.79,9.33-17.5,18.74c-3.93,4.24,2.42,10.62,6.36,6.36,42.72-46.13,86.94-90.89,133-133.73,35.8-33.32,72.7-65.5,110.9-96.05,27.79-22.23,56.3-43.61,85.7-63.68,18.24-12.46,36.82-24.45,55.92-35.54,7.39-4.29,15.61-7.75,22.75-12.41l.29-.14c5.22-2.5.66-10.26-4.54-7.77Z" transform="translate(-1 -90.27)"/><path class="cls-3" d="M302.3,670.55S-101.31,222.11,33.59,122.26C137.73,45.18,275.49,131.75,353,379.65c22.89,73.23,40.52,160.54,50.47,261.87Z" transform="translate(-1 -90.27)"/><path d="M305.84,667c-9.12-10.13-18-20.48-26.86-30.85q-33.33-39-65.14-79.36c-27.93-35.41-55-71.54-80.65-108.63C106.49,409.6,81.1,370,59,328.55c-18.48-34.69-35.55-71.24-44-109.84C9.24,192,7.58,161.88,23.69,139.15c8.94-12.61,24.79-22,39.49-28.61a118.45,118.45,0,0,1,56.19-10.3C165,103.12,204.58,132,234.63,164.46c46,49.79,76.79,113,99.87,176.16,27.62,75.56,44.82,154.77,56,234.32,3.12,22.13,5.71,44.33,7.91,66.58l3.67-4.83-88.45,25.39L301,665.73c-6.17,1.77-3.55,11.42,2.66,9.64L392.08,650l12.68-3.64c1.95-.56,3.89-2.66,3.68-4.82-8.3-84-22.32-167.87-46.31-248.94-21.1-71.32-49.81-142.62-94.05-203C238.51,149.27,199.86,111,150.88,96c-40.6-12.44-83.26-4.22-117.61,20.33-11.64,8.32-20.58,18.85-26,32.18C2,161.59.52,176,1.13,190.05c1.64,37.26,15.73,73.58,31.12,107.09,19.37,42.16,43.3,82.19,68.67,121,26,39.82,53.94,78.42,82.87,116.18Q219.6,581,257.46,626.16c13,15.44,26.05,30.79,39.45,45.85l1.86,2.07C303.08,678.88,310.13,671.79,305.84,667Z" transform="translate(-1 -90.27)"/><path d="M94.27,143.83c5,5.86,7.81,9.71,12.28,15.72C118.74,176,130.14,193,141.1,210.29c18.15,28.62,35,58,51,87.94,22.15,41.48,42.53,83.91,61.52,126.93,24.69,55.93,47,112.9,67.39,170.52q4.26,12.06,8.42,24.15c1.87,5.44,10.57,3.1,8.68-2.4C317.65,558,295.25,499.24,270.47,441.48c-19.44-45.29-40.35-90-63.15-133.66-16.53-31.69-34-62.89-52.91-93.25-11.79-19-24.08-37.65-37.25-55.69q-5.55-7.62-11.36-15a50.63,50.63,0,0,0-5-6.14,2.43,2.43,0,0,1-.2-.25c-3.79-4.4-10.13,2-6.37,6.37Z" transform="translate(-1 -90.27)"/><path d="M229.58,519c-3.6-18.36-8.89-36.48-14.61-54.26-12.34-38.36-28.16-76.16-49.63-110.34-13-20.65-28.16-40.2-46.33-56.54-9.54-8.59-23.73,5.51-14.14,14.14,31.2,28.08,53,65.14,70,103.12A563.29,563.29,0,0,1,206.05,506c1.54,6.07,3,12.16,4.25,18.3,1,5.31,7.37,8.34,12.3,7,5.53-1.52,8-7,7-12.3Z" transform="translate(-1 -90.27)"/><path class="cls-1" d="M72.8,851.53s-16.27-247.6,84.91-325.22c0,0,149.48-108.58,315.24,32.47,0,0,82.87,61.39,38.13,260.28,0,0-14.24,54.79-47.79,85.23,0,0-151.54,145-325.56,52a122.33,122.33,0,0,1-64.82-102C72.87,853.42,72.83,852.48,72.8,851.53Z" transform="translate(-1 -90.27)"/><path d="M77.8,851.53c-1.82-27.77-1.23-55.86.25-83.62,2.89-54.12,10.24-109.45,29.87-160.26,13.26-34.31,33.41-67.22,65.46-85.15A246.42,246.42,0,0,1,309.27,492c36.6,2.5,72.15,13.91,104.24,31.51a348.37,348.37,0,0,1,56.91,39.63c-1-.81-.94-.82-.11-.07s1.57,1.37,2.34,2.09c20.46,19.18,32.53,48.62,39.21,76.42,7,29.12,8.48,59.35,6.93,89.18A484.09,484.09,0,0,1,511.67,791c-2.1,11.75-4.17,23.57-7.88,34.93-9,27.48-22.65,55.05-44.09,74.89A250.38,250.38,0,0,1,437,919.28c-43,31.48-93.76,54.64-147,61.23a247.33,247.33,0,0,1-107-10.16c-19.19-6.26-38.71-14.45-55.33-26.05A117.13,117.13,0,0,1,77.8,851.53c-.24-6.42-10.24-6.45-10,0,1.4,38.26,19.2,74.07,49.61,97.55,16.41,12.67,36.06,21.35,55.46,28.34a256.25,256.25,0,0,0,57,13.36c63.43,7.43,127.2-10.87,181.7-42.88C444.12,928.8,475,906,494,872.75c13-22.68,21.12-46.63,26-72.15,7.21-37.67,11.16-76.34,8.48-114.7-2.88-41.26-13.32-84.62-39.51-117.63a90.37,90.37,0,0,0-13.47-13.76C443.4,528.1,408.43,506,368.58,493.27c-56.78-18.11-118.75-14.93-173.71,7.85-13,5.38-25.78,11.59-37.51,19.38-15.68,10.42-28.23,26.12-38.17,41.89-30.24,48-41.57,107-47.67,162.55a788.57,788.57,0,0,0-4,120.3c.09,2.1.18,4.19.32,6.29C68.22,857.92,78.22,858,77.8,851.53Z" transform="translate(-1 -90.27)"/><path d="M393.36,540.89c3.54-18,8.71-35.82,14.3-53.29,11.8-36.87,26.68-72.41,47.23-105.41,12.27-19.71,26.6-38,43.9-53.61,9.59-8.62-4.59-22.73-14.14-14.14-32.06,28.85-55,67-72.59,106a587.26,587.26,0,0,0-33.57,96.18c-1.6,6.28-3.17,12.59-4.41,19-1,5.29,1.5,10.79,7,12.3,4.91,1.35,11.26-1.66,12.3-7Z" transform="translate(-1 -90.27)"/><ellipse class="cls-3" cx="310.26" cy="734.97" rx="144.07" ry="78.45" transform="translate(-462.34 847.34) rotate(-81.83)"/><path d="M386.48,745.62c-4,27.12-11.72,54-24.87,78.12-10,18.37-23.66,36.67-42.52,46.65-15.64,8.28-33.73,8.15-48.41-2.14-16.91-11.83-26.39-32.31-31.92-51.57-7.4-25.76-8.69-53.16-6.21-79.74,2.65-28.3,9.68-56.62,22-82.29,15-31.1,50.38-77.48,90.26-56,17.59,9.45,28.15,28.64,34.45,46.86,8.53,24.67,10.82,51.34,9.43,77.28q-.63,11.49-2.25,22.88c-.26,1.89,2.63,2.7,2.9.8,4-28.42,4-57.72-2.6-85.77-4.89-21-13.74-43.14-30.36-57.61-13.19-11.47-30.63-15.63-47.35-10-19.75,6.6-34.87,23.24-45.93,40.22-15.32,23.53-24.77,50.82-30,78.29-5.52,29.05-6.57,59.31-1.31,88.48,6.34,35.22,28.76,87.54,73.53,78.56,19.49-3.91,35.18-18.76,46.67-34.17,16.27-21.82,26.6-48,32.86-74.33,1.86-7.81,3.32-15.7,4.49-23.64C389.65,744.53,386.76,743.71,386.48,745.62Z" transform="translate(-1 -90.27)"/><ellipse class="cls-3" cx="155.3" cy="722.14" rx="144.06" ry="74.96" transform="translate(-579.22 718.75) rotate(-84.62)"/><path d="M228.43,729.13c-2.69,27.67-9.14,55.37-21.16,80.54-8.8,18.44-21.12,37.37-39.14,48-14.79,8.69-32.06,8.71-46.26-1.24-16.68-11.71-26.16-32.06-32-51-7.89-25.66-10-53-8.52-79.7,1.57-28,7.18-56.11,17.93-82.07,12.59-30.4,45-80,84.54-58.77,19.72,10.6,30.57,33.54,36.86,54,8.94,29.07,10.46,60.14,7.72,90.27-.17,1.93,2.83,1.91,3,0,2.62-28.78,1.29-58.35-6.44-86.31-5.6-20.24-14.9-41.73-31.69-55.21-13.2-10.6-30.11-13.48-45.82-6.83-18.76,8-32.28,25.59-41.89,42.92-13.72,24.71-21.45,52.63-25.17,80.52-3.9,29.16-3.52,59.29,2.91,88.07,7.38,33,30.61,85.07,73.52,73.41,19.08-5.18,33.49-21.43,43.69-37.55,14.66-23.16,23.26-50.1,27.94-77,1.28-7.31,2.24-14.67,3-22.06C231.62,727.21,228.62,727.23,228.43,729.13Z" transform="translate(-1 -90.27)"/><path d="M158,744.25l38.19,2.06c-2.09,38.74-21,69.69-42,68.56s-36.47-33.94-34.38-72.68,21.05-69.69,42-68.56c11.59.63,22.05,11,28.39,28.11Z" transform="translate(-1 -90.27)"/><path d="M308,752.25l37.65,6.69c-6.79,38.2-29.37,66.61-50,62.94s-32.07-38.13-25.28-76.33,29.38-66.6,50-62.93c11.43,2,20.55,13.58,24.75,31.35Z" transform="translate(-1 -90.27)"/></svg>